<svg width="42" height="36" viewBox="0 0 42 36" fill="none" xmlns="http://www.w3.org/2000/svg">
<path fill-rule="evenodd" clip-rule="evenodd" d="M8.97842 12.8679C9.51732 13.4427 10 14.4282 10 16C10 17.1046 10.8954 18 12 18C13.1046 18 14 17.1046 14 16C14 13.5719 13.2327 11.5573 11.8966 10.1321C10.57 8.71715 8.78662 8 7 8C5.21338 8 3.42996 8.71715 2.10342 10.1321C0.767316 11.5573 0 13.5719 0 16.0001C0 17.1046 0.895431 18.0001 2 18.0001C3.10457 18.0001 4 17.1046 4 16.0001C4 14.4282 4.48268 13.4427 5.02158 12.8679C5.57004 12.2829 6.28662 12 7 12C7.71338 12 8.42996 12.2829 8.97842 12.8679Z" fill="#FF5353"/>
<path fill-rule="evenodd" clip-rule="evenodd" d="M14 26.5833C11.5105 23.7628 10 20.0578 10 16V0L14.6863 4.68629C17.5817 1.79086 21.5817 0 26 0C30.4183 0 34.4183 1.79086 37.3137 4.68629L42 0V16C42 20.0578 40.4895 23.7628 38 26.5833V30C38 31.1046 37.1046 32 36 32C34.8954 32 34 31.1046 34 30V29.8595C33.36 30.2297 32.692 30.5568 32 30.837V34C32 35.1046 31.1046 36 30 36C28.8954 36 28 35.1046 28 34V31.8762C27.3448 31.9579 26.6773 32 26 32C25.3227 32 24.6552 31.9579 24 31.8762V34C24 35.1046 23.1046 36 22 36C20.8954 36 20 35.1046 20 34V30.837C19.308 30.5568 18.64 30.2297 18 29.8595V30C18 31.1046 17.1046 32 16 32C14.8954 32 14 31.1046 14 30V26.5833Z" fill="#FF5353"/>
<circle cx="2" cy="2" r="2" transform="matrix(-1 0 0 1 36 8)" fill="black"/>
<circle cx="2" cy="2" r="2" transform="matrix(-1 0 0 1 20 8)" fill="black"/>
<path fill-rule="evenodd" clip-rule="evenodd" d="M29 15C28.4477 15 28 14.5523 28 14C28 13.2714 27.7367 12.7984 27.3981 12.4974C27.0412 12.1801 26.5369 12 26 12C25.4631 12 24.9588 12.1801 24.6019 12.4974C24.2633 12.7984 24 13.2714 24 14C24 14.5523 23.5523 15 23 15C22.4477 15 22 14.5523 22 14C22 12.7286 22.4867 11.7016 23.2731 11.0026C24.0412 10.3199 25.0369 10 26 10C26.9631 10 27.9588 10.3199 28.7269 11.0026C29.5133 11.7016 30 12.7286 30 14C30 14.5523 29.5523 15 29 15Z" fill="black"/>
</svg>
