<svg width="42" height="36" viewBox="0 0 42 36" fill="none" xmlns="http://www.w3.org/2000/svg">
    <g transform="scale(0.5)">
        <path fill-rule="evenodd" clip-rule="evenodd" d="M66.0432 25.7358C64.9654 26.8854 64 28.8564 64 32.0001C64 34.2092 62.2091 36.0001 60 36.0001C57.7909 36.0001 56 34.2092 56 32.0001C56 27.1437 57.5346 23.1146 60.2068 20.2643C62.8599 17.4343 66.4268 16 70 16C73.5732 16 77.1401 17.4343 79.7932 20.2643C82.4654 23.1147 84 27.1438 84 32.0001C84 34.2092 82.2091 36.0001 80 36.0001C77.7909 36.0001 76 34.2092 76 32.0001C76 28.8564 75.0346 26.8854 73.9568 25.7358C72.8599 24.5657 71.4268 24 70 24C68.5732 24 67.1401 24.5657 66.0432 25.7358Z" fill="#FFD130"/>
        <path fill-rule="evenodd" clip-rule="evenodd" d="M56 53.1666C60.9789 47.5255 64 40.1156 64 32V0L54.6274 9.37258C48.8366 3.58172 40.8366 0 32 0C23.1634 0 15.1634 3.58172 9.37258 9.37258L0 0V32C0 40.1156 3.02109 47.5255 8 53.1666V60C8 62.2091 9.79086 64 12 64C14.2091 64 16 62.2091 16 60V59.719C17.2799 60.4594 18.6159 61.1137 20 61.6739V68C20 70.2091 21.7909 72 24 72C26.2091 72 28 70.2091 28 68V63.7524C29.3104 63.9158 30.6454 64 32 64C33.3546 64 34.6896 63.9158 36 63.7524V68C36 70.2091 37.7909 72 40 72C42.2091 72 44 70.2091 44 68V61.6739C45.3841 61.1137 46.7201 60.4594 48 59.719V60C48 62.2091 49.7909 64 52 64C54.2091 64 56 62.2091 56 60V53.1666Z" fill="#FFD130"/>
        <circle cx="16" cy="20" r="4" fill="black"/>
        <circle cx="48" cy="20" r="4" fill="black"/>
        <path fill-rule="evenodd" clip-rule="evenodd" d="M38 20C36.8954 20 36 20.8954 36 22C36 23.4573 35.4734 24.4033 34.7963 25.0052C34.0823 25.6398 33.0739 26 32 26C30.9261 26 29.9177 25.6398 29.2037 25.0052C28.5266 24.4033 28 23.4573 28 22C28 20.8954 27.1046 20 26 20C24.8954 20 24 20.8954 24 22C24 24.5427 24.9734 26.5967 26.5463 27.9948C28.0823 29.3602 30.0739 30 32 30C33.9261 30 35.9177 29.3602 37.4537 27.9948C39.0266 26.5967 40 24.5427 40 22C40 20.8954 39.1046 20 38 20Z" fill="black"/>
    </g>
</svg>
